<?xml version="1.0" encoding="utf-8"?>
<?xml-stylesheet type="text/xsl" href="rss1.xsl"?>
<rss version="2.0" xmlns:atom="http://www.w3.org/2005/Atom" xmlns:content="http://purl.org/rss/1.0/modules/content/" xmlns:dc="http://purl.org/dc/elements/1.1/" xmlns:media="http://search.yahoo.com/mrss/">
<channel>
 <title>Getty</title>
 <link>http://www.gettyimg.com/</link>
 <atom:link href="http://www.gettyimg.com/" rel="self" type="application/rss+xml" />

 
                <item>
                <title><![CDATA[【Music Videos】JENNIE - You &amp; Me [4K HEVC 10-bit | PCM 24-bit 48 kHz | DD+ Dolby Atmos]]]></title>
                <link><![CDATA[https://sharemania.us/threads/jennie-you-me-4k-hevc-10-bit-pcm-24-bit-48-khz-dd-dolby-atmos.230819/]]></link>
                <description><![CDATA[<article>
<blockquote class="messageText SelectQuoteContainer ugc baseHtml">
<img src="https://images2.imgbox.com/1c/80/xItYSeiT_o.jpg" class="bbCodeImage LbImage" alt="[​IMG]" data-url="https://images2.imgbox.com/1c/80/xItYSeiT_o.jpg" style=""><br>
<br>
<b>Genre: <span style="color: #0059b3">Pop</span> <br>
Style: <span style="color: #0059b3">K-pop</span> <br>
Year: <span style="color: #0059b3">2023</span><br>
Video Source: <span style="color: #0059b3">Apple Music, thanks Chocoberry</span><br>
Audio Source: <span style="color: #0059b3">Qobuz &amp; Tidal, thanks uvvul</span></b><br>
<br>
"<b>You &amp; Me</b>" is a song by South Korean singer, rapper, and Blackpink member Jennie. It was released on October 6, 2023, through YG Entertainment and Interscope Records, as a special single after being performed on Blackpink's Born Pink World Tour (2022–2023). It marked Jennie's first solo single in five years after "Solo" (2018). Written by Teddy and Danny Chung and composed by Teddy, 24, and Vince, "You &amp; Me" is a dance-pop track with romantic lyrics about being in love. A remix version that was performed at Coachella was simultaneously released, with additional writing credits by Bekuh Boom.<br>
<br>
"You &amp; Me" was a commercial success and peaked at number seven on the <i>Billboard</i> Global 200 and number one on the Global Excl. U.S., becoming Jennie's first number-one hit on the latter chart. In South Korea, the song topped <i>Billboard</i>'s South Korea Songs chart and peaked at number four on the Circle Digital Chart. It topped the charts in Hong Kong, Malaysia, Singapore, Taiwan, and Vietnam and reached the top ten in Indonesia and the Philippines. In the United Kingdom, the song entered the top 40 of the UK Singles Chart and was the first song by a Korean female act to top the UK Singles Downloads Chart.<br>
<br>
A dance performance video was directed by Lee Han Gyeol and uploaded to Blackpink's official YouTube channel alongside the single on October 6, 2023. Upon release, it topped the worldwide trending list on YouTube and garnered 10 million views in less than 24 hours.<br>
<br>
<b>Release Info</b><br>
The video track is downloaded from Apple Music by Chocoberry, left as is (4K HEVC 10-bit).<br>
The PCM track is lossless (Qobuz Hi-Res 24-bit 48 kHz) synced with Adobe Audition.<br>
The Dolby Atmos track is lossy (E-AC3), synced to the video track by muxing.<br>
The timed lyrics are synced &amp; edited. Enable the subtitles to see the lyrics.<br>
<br>
<div class="ToggleTriggerAnchor bbCodeSpoilerContainer">
<button type="button" class="button bbCodeSpoilerButton ToggleTrigger Tooltip JsOnly" data-target="> .SpoilerTarget"><span>Spoiler: <span class="SpoilerTitle">Media Info</span></span></button>
<div class="SpoilerTarget bbCodeSpoilerText">
<div class="bbCodeBlock bbCodeCode">
<div class="type">Code:</div>
<pre>General
Unique ID                      : 335545956271232258058963873443899952702 (0xFC6FCCECEB01565458ECC8BD21FECE3E)
Complete name                  : JENNIE - You &amp; Me.mkv
Format                         : Matroska
Format version                 : Version 4 / Version 2
File size                      : 345 MiB
Duration                       : 3 min 10 s
Overall bit rate               : 15.2 Mb/s
Frame rate                     : 23.976 FPS
Encoded date                   : 2023-10-20 22:59:26 UTC
Writing application            : mkvmerge v79.0 ('Funeral Pyres') 64-bit
Writing library                : libebml v1.4.4 + libmatroska v1.7.1
Cover                          : Yes
Attachments                    : cover.jpg

Video
ID                             : 1
Format                         : HEVC
Format/Info                    : High Efficiency Video Coding
Format profile                 : Main 10@L5@High
Codec ID                       : V_MPEGH/ISO/HEVC
Duration                       : 3 min 10 s
Bit rate                       : 11.9 Mb/s
Width                          : 3 840 pixels
Height                         : 2 160 pixels
Display aspect ratio           : 16:9
Frame rate mode                : Constant
Frame rate                     : 23.976 (23976/1000) FPS
Color space                    : YUV
Chroma subsampling             : 4:2:0
Bit depth                      : 10 bits
Bits/(Pixel*Frame)             : 0.060
Stream size                    : 271 MiB (78%)
Default                        : Yes
Forced                         : No
Color range                    : Limited
Color primaries                : BT.709
Transfer characteristics       : BT.709
Matrix coefficients            : BT.709

Audio #1
ID                             : 2
Format                         : PCM
Format settings                : Little / Signed
Codec ID                       : A_PCM/INT/LIT
Duration                       : 3 min 10 s
Bit rate mode                  : Constant
Bit rate                       : 2 304 kb/s
Channel(s)                     : 2 channels
Sampling rate                  : 48.0 kHz
Frame rate                     : 25.002 FPS (1920 SPF)
Bit depth                      : 24 bits
Stream size                    : 52.3 MiB (15%)
Title                          : Lossless 24-bit 48 kHz
Language                       : English
Default                        : Yes
Forced                         : No

Audio #2
ID                             : 3
Format                         : E-AC-3 JOC
Format/Info                    : Enhanced AC-3 with Joint Object Coding
Commercial name                : Dolby Digital Plus with Dolby Atmos
Codec ID                       : A_EAC3
Duration                       : 2 min 59 s
Bit rate mode                  : Constant
Bit rate                       : 768 kb/s
Channel(s)                     : 6 channels
Channel layout                 : L R C LFE Ls Rs
Sampling rate                  : 48.0 kHz
Frame rate                     : 31.250 FPS (1536 SPF)
Compression mode               : Lossy
Delay relative to video        : 718 ms
Stream size                    : 16.4 MiB (5%)
Title                          : Dolby Digital Plus with Dolby Atmos
Language                       : English
Service kind                   : Complete Main
Default                        : No
Forced                         : No
Complexity index               : 16
Number of dynamic objects      : 15
Bed channel count              : 1 channel
Bed channel configuration      : LFE

Audio #3
ID                             : 4
Format                         : AAC LC
Format/Info                    : Advanced Audio Codec Low Complexity
Codec ID                       : A_AAC-2
Duration                       : 3 min 10 s
Bit rate                       : 247 kb/s
Channel(s)                     : 2 channels
Channel layout                 : L R
Sampling rate                  : 48.0 kHz
Frame rate                     : 46.875 FPS (1024 SPF)
Compression mode               : Lossy
Delay relative to video        : 1 ms
Stream size                    : 5.61 MiB (2%)
Language                       : English
Default                        : No
Forced                         : No

Text
ID                             : 5
Format                         : UTF-8
Codec ID                       : S_TEXT/UTF8
Codec ID/Info                  : UTF-8 Plain Text
Duration                       : 2 min 40 s
Bit rate                       : 89 b/s
Frame rate                     : 0.369 FPS
Count of elements              : 59
Stream size                    : 1.75 KiB (0%)
Title                          : Lyrics
Language                       : English
Default                        : No
Forced                         : No
</pre>
</div></div>
</div><br>
<div class="bbCodeBlock bbCodeVfcHH HiddenContent">
<div class="attribution type">Hidden Content:</div>
<blockquote>You must reply before you can see the hidden data contained here.</blockquote>
</div>
<div class="messageTextEndMarker">&nbsp;</div>
</blockquote>
</article>]]></description>
                <author><![CDATA[ADHDerby]]></author>
                </item>

                
                <item>
                <title><![CDATA[【Requests】[REQ AUD] - Celine Dion - Wicked Game]]></title>
                <link><![CDATA[https://sharemania.us/threads/celine-dion-wicked-game.230818/]]></link>
                <description><![CDATA[<article>
<blockquote class="messageText SelectQuoteContainer ugc baseHtml">
Have anyone this song in mp3?<br>
<br>
<a href="https://open.spotify.com/intl-de/track/7rSSVVqC2sqDhmt1LfWm3J" target="_blank" class="externalLink" rel="nofollow">https://open.spotify.com/intl-de/track/7rSSVVqC2sqDhmt1LfWm3J</a>
<div class="messageTextEndMarker">&nbsp;</div>
</blockquote>
</article>]]></description>
                <author><![CDATA[Braddy89]]></author>
                </item>

                </channel></rss>